<?xml version="1.0" encoding="utf-8"?>
<!-- Generator: Adobe Illustrator 25.3.1, SVG Export Plug-In . SVG Version: 6.00 Build 0)  -->
<svg version="1.1" id="Layer_1" xmlns="http://www.w3.org/2000/svg" xmlns:xlink="http://www.w3.org/1999/xlink" x="0px" y="0px"
	 viewBox="0 0 725.67 554.08" style="enable-background:new 0 0 725.67 554.08;" xml:space="preserve">
<style type="text/css">
	.st0{fill:#0192DB;}
	.st1{fill:#D8251C;}
	.st2{fill:#84C225;}
</style>
<path class="st0" d="M439.65,233.22c-18.25,18.21-32.47,38.09-46.57,58.03c-30.27,42.78-58.55,86.88-86.65,131.1
	c-20.13,31.68-40.1,63.46-60.29,95.1c-15.53,24.34-37.83,36.64-66.74,36.64c-51.58,0-103.16-0.05-154.74-0.08
	c-8.21,0-16.42,0-24.64,0c-0.2-2.56,1.31-3.57,2.15-4.84c28.41-42.73,55.62-86.23,83.3-129.43c26.73-41.72,53.27-83.57,80.13-125.21
	c10.11-15.68,21.13-30.72,35.13-43.3c11.45-10.29,24.37-16.09,40.25-16.05c34.96,0.09,69.92-0.65,104.88-1.04
	c29.42-0.32,58.85-0.62,88.27-0.92C435.56,233.21,437,233.22,439.65,233.22z"/>
<path class="st1" d="M379.25,0.05c12.06,0,23.91-0.13,35.75,0.03c23.89,0.31,47.78,0.77,71.67,1.18c30.9,0.54,61.81,1.01,92.71,1.68
	c14.57,0.32,25.4,8.15,34.74,18.45c9.41,10.36,16.09,22.66,23.74,34.25c28.25,42.82,56.31,85.78,84.43,128.7
	c0.93,1.41,2.24,2.67,2.42,4.53c-1.18,0.79-2.41,0.42-3.57,0.43c-33.08,0.07-66.17,0.11-99.25,0.18
	c-27.14,0.06-54.28,0.43-81.42,0.16c-18.78-0.18-34.63-8.34-48.76-20.14c-9.64-8.04-17.07-17.99-23.73-28.54
	C438.64,94.48,409.33,47.99,380.02,1.5C379.73,1.05,379.52,0.57,379.25,0.05z"/>
<path class="st2" d="M725.67,235.9c-6.47,10.08-12.55,19.62-18.7,29.11c-23.7,36.58-47.42,73.15-71.13,109.72
	c-3.6,5.55-7.27,11.05-10.77,16.66c-9.42,15.08-23.7,23.17-40.18,28.05c-6.24,1.85-12.68,2.35-19.2,2.35
	c-59.81-0.04-119.63,0.02-179.44,0.04c-1.48,0-2.96,0-5.23,0c2.25-3.56,4.16-6.71,6.19-9.77c28.91-43.67,57.78-87.35,86.78-130.96
	c10.6-15.94,23.22-29.83,40.84-38.31c10.47-5.04,21.37-7.78,33.15-7.71c58.05,0.36,116.11,0.46,174.16,0.66
	C723.05,235.73,723.98,235.82,725.67,235.9z"/>
</svg>
